<mxfile host="app.diagrams.net" modified="2023-04-05T04:42:54.336Z" agent="Mozilla/5.0 (Windows NT 10.0; Win64; x64) AppleWebKit/537.36 (KHTML, like Gecko) Chrome/111.0.0.0 Safari/537.36" etag="wuGuPJRdRx9WAuN5mu1K" version="21.1.4" type="github">
  <diagram name="Page-1" id="822b0af5-4adb-64df-f703-e8dfc1f81529">
    <mxGraphModel dx="2049" dy="1091" grid="1" gridSize="10" guides="1" tooltips="1" connect="1" arrows="1" fold="1" page="1" pageScale="1" pageWidth="1400" pageHeight="850" background="none" math="0" shadow="0">
      <root>
        <mxCell id="0" />
        <mxCell id="1" parent="0" />
        <mxCell id="3ec1wWw5gw--vMGnxBrd-1" value="" style="verticalLabelPosition=bottom;sketch=0;aspect=fixed;html=1;verticalAlign=top;strokeColor=none;align=center;outlineConnect=0;shape=mxgraph.citrix.cloud;" vertex="1" parent="1">
          <mxGeometry x="320" y="333" width="140.97" height="92" as="geometry" />
        </mxCell>
        <mxCell id="3ec1wWw5gw--vMGnxBrd-2" value="&lt;font style=&quot;font-size: 15px;&quot;&gt;LAN/WAN&lt;/font&gt;" style="text;html=1;align=center;verticalAlign=middle;resizable=0;points=[];autosize=1;strokeColor=none;fillColor=none;" vertex="1" parent="1">
          <mxGeometry x="345.49" y="364" width="90" height="30" as="geometry" />
        </mxCell>
        <mxCell id="3ec1wWw5gw--vMGnxBrd-11" value="" style="group" vertex="1" connectable="0" parent="1">
          <mxGeometry x="80" y="70" width="116" height="636.5" as="geometry" />
        </mxCell>
        <mxCell id="3ec1wWw5gw--vMGnxBrd-5" value="" style="verticalLabelPosition=bottom;sketch=0;aspect=fixed;html=1;verticalAlign=top;strokeColor=none;align=center;outlineConnect=0;shape=mxgraph.citrix.laptop_2;" vertex="1" parent="3ec1wWw5gw--vMGnxBrd-11">
          <mxGeometry width="116" height="86.5" as="geometry" />
        </mxCell>
        <mxCell id="3ec1wWw5gw--vMGnxBrd-6" value="" style="verticalLabelPosition=bottom;sketch=0;aspect=fixed;html=1;verticalAlign=top;strokeColor=none;align=center;outlineConnect=0;shape=mxgraph.citrix.laptop_2;" vertex="1" parent="3ec1wWw5gw--vMGnxBrd-11">
          <mxGeometry y="130" width="116" height="86.5" as="geometry" />
        </mxCell>
        <mxCell id="3ec1wWw5gw--vMGnxBrd-7" value="" style="verticalLabelPosition=bottom;sketch=0;aspect=fixed;html=1;verticalAlign=top;strokeColor=none;align=center;outlineConnect=0;shape=mxgraph.citrix.laptop_2;" vertex="1" parent="3ec1wWw5gw--vMGnxBrd-11">
          <mxGeometry y="269" width="116" height="86.5" as="geometry" />
        </mxCell>
        <mxCell id="3ec1wWw5gw--vMGnxBrd-8" value="" style="verticalLabelPosition=bottom;sketch=0;aspect=fixed;html=1;verticalAlign=top;strokeColor=none;align=center;outlineConnect=0;shape=mxgraph.citrix.laptop_2;" vertex="1" parent="3ec1wWw5gw--vMGnxBrd-11">
          <mxGeometry y="410" width="116" height="86.5" as="geometry" />
        </mxCell>
        <mxCell id="3ec1wWw5gw--vMGnxBrd-9" value="" style="verticalLabelPosition=bottom;sketch=0;aspect=fixed;html=1;verticalAlign=top;strokeColor=none;align=center;outlineConnect=0;shape=mxgraph.citrix.laptop_2;" vertex="1" parent="3ec1wWw5gw--vMGnxBrd-11">
          <mxGeometry y="550" width="116" height="86.5" as="geometry" />
        </mxCell>
        <mxCell id="3ec1wWw5gw--vMGnxBrd-10" value="" style="verticalLabelPosition=bottom;sketch=0;aspect=fixed;html=1;verticalAlign=top;strokeColor=none;align=center;outlineConnect=0;shape=mxgraph.citrix.laptop_2;" vertex="1" parent="3ec1wWw5gw--vMGnxBrd-11">
          <mxGeometry y="130" width="116" height="86.5" as="geometry" />
        </mxCell>
        <mxCell id="3ec1wWw5gw--vMGnxBrd-15" value="" style="endArrow=classic;startArrow=classic;html=1;rounded=0;" edge="1" parent="1">
          <mxGeometry width="50" height="50" relative="1" as="geometry">
            <mxPoint x="200" y="530" as="sourcePoint" />
            <mxPoint x="340" y="420" as="targetPoint" />
          </mxGeometry>
        </mxCell>
        <mxCell id="3ec1wWw5gw--vMGnxBrd-16" value="" style="endArrow=classic;startArrow=classic;html=1;rounded=0;" edge="1" parent="1">
          <mxGeometry width="50" height="50" relative="1" as="geometry">
            <mxPoint x="200" y="640" as="sourcePoint" />
            <mxPoint x="350" y="430" as="targetPoint" />
          </mxGeometry>
        </mxCell>
        <mxCell id="3ec1wWw5gw--vMGnxBrd-22" value="" style="endArrow=classic;startArrow=classic;html=1;rounded=0;" edge="1" parent="1" source="3ec1wWw5gw--vMGnxBrd-1">
          <mxGeometry width="50" height="50" relative="1" as="geometry">
            <mxPoint x="330" y="350" as="sourcePoint" />
            <mxPoint x="196" y="275" as="targetPoint" />
          </mxGeometry>
        </mxCell>
        <mxCell id="3ec1wWw5gw--vMGnxBrd-23" value="" style="endArrow=classic;startArrow=classic;html=1;rounded=0;" edge="1" parent="1">
          <mxGeometry width="50" height="50" relative="1" as="geometry">
            <mxPoint x="200" y="140" as="sourcePoint" />
            <mxPoint x="360" y="330" as="targetPoint" />
          </mxGeometry>
        </mxCell>
        <mxCell id="3ec1wWw5gw--vMGnxBrd-26" value="Клиенты" style="text;html=1;align=center;verticalAlign=middle;resizable=0;points=[];autosize=1;strokeColor=none;fillColor=none;" vertex="1" parent="1">
          <mxGeometry x="103" y="20" width="70" height="30" as="geometry" />
        </mxCell>
        <mxCell id="3ec1wWw5gw--vMGnxBrd-28" value="" style="verticalLabelPosition=bottom;sketch=0;aspect=fixed;html=1;verticalAlign=top;strokeColor=none;align=center;outlineConnect=0;shape=mxgraph.citrix.hq_enterprise;" vertex="1" parent="1">
          <mxGeometry x="550" y="300" width="184.52" height="176.5" as="geometry" />
        </mxCell>
        <mxCell id="3ec1wWw5gw--vMGnxBrd-29" value="" style="endArrow=classic;startArrow=classic;html=1;rounded=0;" edge="1" parent="1" target="3ec1wWw5gw--vMGnxBrd-1">
          <mxGeometry width="50" height="50" relative="1" as="geometry">
            <mxPoint x="550" y="380" as="sourcePoint" />
            <mxPoint x="840" y="320" as="targetPoint" />
          </mxGeometry>
        </mxCell>
        <mxCell id="3ec1wWw5gw--vMGnxBrd-30" value="" style="endArrow=classic;startArrow=classic;html=1;rounded=0;" edge="1" parent="1">
          <mxGeometry width="50" height="50" relative="1" as="geometry">
            <mxPoint x="550" y="395" as="sourcePoint" />
            <mxPoint x="461" y="394" as="targetPoint" />
          </mxGeometry>
        </mxCell>
        <mxCell id="3ec1wWw5gw--vMGnxBrd-31" value="Балансировщик" style="text;html=1;align=center;verticalAlign=middle;resizable=0;points=[];autosize=1;strokeColor=none;fillColor=none;" vertex="1" parent="1">
          <mxGeometry x="587.26" y="260" width="110" height="30" as="geometry" />
        </mxCell>
        <mxCell id="3ec1wWw5gw--vMGnxBrd-37" value="" style="group" vertex="1" connectable="0" parent="1">
          <mxGeometry x="970" y="59.20999999999998" width="75" height="658.08" as="geometry" />
        </mxCell>
        <mxCell id="3ec1wWw5gw--vMGnxBrd-32" value="" style="verticalLabelPosition=bottom;sketch=0;aspect=fixed;html=1;verticalAlign=top;strokeColor=none;align=center;outlineConnect=0;shape=mxgraph.citrix.pbx_server;" vertex="1" parent="3ec1wWw5gw--vMGnxBrd-37">
          <mxGeometry width="75" height="98.08" as="geometry" />
        </mxCell>
        <mxCell id="3ec1wWw5gw--vMGnxBrd-33" value="" style="verticalLabelPosition=bottom;sketch=0;aspect=fixed;html=1;verticalAlign=top;strokeColor=none;align=center;outlineConnect=0;shape=mxgraph.citrix.pbx_server;" vertex="1" parent="3ec1wWw5gw--vMGnxBrd-37">
          <mxGeometry y="140" width="75" height="98.08" as="geometry" />
        </mxCell>
        <mxCell id="3ec1wWw5gw--vMGnxBrd-34" value="" style="verticalLabelPosition=bottom;sketch=0;aspect=fixed;html=1;verticalAlign=top;strokeColor=none;align=center;outlineConnect=0;shape=mxgraph.citrix.pbx_server;" vertex="1" parent="3ec1wWw5gw--vMGnxBrd-37">
          <mxGeometry y="280" width="75" height="98.08" as="geometry" />
        </mxCell>
        <mxCell id="3ec1wWw5gw--vMGnxBrd-35" value="" style="verticalLabelPosition=bottom;sketch=0;aspect=fixed;html=1;verticalAlign=top;strokeColor=none;align=center;outlineConnect=0;shape=mxgraph.citrix.pbx_server;" vertex="1" parent="3ec1wWw5gw--vMGnxBrd-37">
          <mxGeometry y="420" width="75" height="98.08" as="geometry" />
        </mxCell>
        <mxCell id="3ec1wWw5gw--vMGnxBrd-36" value="" style="verticalLabelPosition=bottom;sketch=0;aspect=fixed;html=1;verticalAlign=top;strokeColor=none;align=center;outlineConnect=0;shape=mxgraph.citrix.pbx_server;" vertex="1" parent="3ec1wWw5gw--vMGnxBrd-37">
          <mxGeometry y="560" width="75" height="98.08" as="geometry" />
        </mxCell>
        <mxCell id="3ec1wWw5gw--vMGnxBrd-38" value="" style="endArrow=classic;startArrow=classic;html=1;rounded=0;" edge="1" parent="1" source="3ec1wWw5gw--vMGnxBrd-7" target="3ec1wWw5gw--vMGnxBrd-1">
          <mxGeometry width="50" height="50" relative="1" as="geometry">
            <mxPoint x="220" y="425" as="sourcePoint" />
            <mxPoint x="270" y="375" as="targetPoint" />
          </mxGeometry>
        </mxCell>
        <mxCell id="3ec1wWw5gw--vMGnxBrd-39" value="" style="endArrow=classic;startArrow=classic;html=1;rounded=0;" edge="1" parent="1">
          <mxGeometry width="50" height="50" relative="1" as="geometry">
            <mxPoint x="740" y="330" as="sourcePoint" />
            <mxPoint x="960" y="150" as="targetPoint" />
          </mxGeometry>
        </mxCell>
        <mxCell id="3ec1wWw5gw--vMGnxBrd-40" value="" style="endArrow=classic;startArrow=classic;html=1;rounded=0;" edge="1" parent="1">
          <mxGeometry width="50" height="50" relative="1" as="geometry">
            <mxPoint x="740" y="360" as="sourcePoint" />
            <mxPoint x="960" y="250" as="targetPoint" />
          </mxGeometry>
        </mxCell>
        <mxCell id="3ec1wWw5gw--vMGnxBrd-41" value="" style="endArrow=classic;startArrow=classic;html=1;rounded=0;entryX=0;entryY=0.518;entryDx=0;entryDy=0;entryPerimeter=0;" edge="1" parent="1" target="3ec1wWw5gw--vMGnxBrd-34">
          <mxGeometry width="50" height="50" relative="1" as="geometry">
            <mxPoint x="740" y="390" as="sourcePoint" />
            <mxPoint x="640" y="290" as="targetPoint" />
          </mxGeometry>
        </mxCell>
        <mxCell id="3ec1wWw5gw--vMGnxBrd-42" value="" style="endArrow=classic;startArrow=classic;html=1;rounded=0;" edge="1" parent="1">
          <mxGeometry width="50" height="50" relative="1" as="geometry">
            <mxPoint x="740" y="410" as="sourcePoint" />
            <mxPoint x="960" y="530" as="targetPoint" />
          </mxGeometry>
        </mxCell>
        <mxCell id="3ec1wWw5gw--vMGnxBrd-43" value="" style="endArrow=classic;startArrow=classic;html=1;rounded=0;" edge="1" parent="1">
          <mxGeometry width="50" height="50" relative="1" as="geometry">
            <mxPoint x="960" y="620" as="sourcePoint" />
            <mxPoint x="740" y="460" as="targetPoint" />
          </mxGeometry>
        </mxCell>
        <mxCell id="3ec1wWw5gw--vMGnxBrd-44" value="Сервера" style="text;html=1;align=center;verticalAlign=middle;resizable=0;points=[];autosize=1;strokeColor=none;fillColor=none;" vertex="1" parent="1">
          <mxGeometry x="972.5" y="20" width="70" height="30" as="geometry" />
        </mxCell>
        <mxCell id="3ec1wWw5gw--vMGnxBrd-45" value="" style="endArrow=classic;startArrow=classic;html=1;rounded=0;" edge="1" parent="1">
          <mxGeometry width="50" height="50" relative="1" as="geometry">
            <mxPoint x="1180" y="290" as="sourcePoint" />
            <mxPoint x="1050" y="150" as="targetPoint" />
          </mxGeometry>
        </mxCell>
        <mxCell id="3ec1wWw5gw--vMGnxBrd-46" value="" style="endArrow=classic;startArrow=classic;html=1;rounded=0;" edge="1" parent="1" source="3ec1wWw5gw--vMGnxBrd-33">
          <mxGeometry width="50" height="50" relative="1" as="geometry">
            <mxPoint x="1040" y="310" as="sourcePoint" />
            <mxPoint x="1160" y="340" as="targetPoint" />
          </mxGeometry>
        </mxCell>
        <mxCell id="3ec1wWw5gw--vMGnxBrd-47" value="" style="endArrow=classic;startArrow=classic;html=1;rounded=0;" edge="1" parent="1">
          <mxGeometry width="50" height="50" relative="1" as="geometry">
            <mxPoint x="1050" y="390" as="sourcePoint" />
            <mxPoint x="1150" y="390" as="targetPoint" />
          </mxGeometry>
        </mxCell>
        <mxCell id="3ec1wWw5gw--vMGnxBrd-48" value="" style="endArrow=classic;startArrow=classic;html=1;rounded=0;" edge="1" parent="1">
          <mxGeometry width="50" height="50" relative="1" as="geometry">
            <mxPoint x="1050" y="530" as="sourcePoint" />
            <mxPoint x="1160" y="430" as="targetPoint" />
          </mxGeometry>
        </mxCell>
        <mxCell id="3ec1wWw5gw--vMGnxBrd-49" value="" style="endArrow=classic;startArrow=classic;html=1;rounded=0;" edge="1" parent="1">
          <mxGeometry width="50" height="50" relative="1" as="geometry">
            <mxPoint x="1050" y="670" as="sourcePoint" />
            <mxPoint x="1190" y="480" as="targetPoint" />
          </mxGeometry>
        </mxCell>
        <mxCell id="3ec1wWw5gw--vMGnxBrd-50" value="" style="outlineConnect=0;dashed=0;verticalLabelPosition=bottom;verticalAlign=top;align=center;html=1;shape=mxgraph.aws3.corporate_data_center;fillColor=#7D7C7C;gradientColor=none;" vertex="1" parent="1">
          <mxGeometry x="1200" y="280" width="140" height="200" as="geometry" />
        </mxCell>
        <mxCell id="3ec1wWw5gw--vMGnxBrd-51" value="БД" style="text;html=1;align=center;verticalAlign=middle;resizable=0;points=[];autosize=1;strokeColor=none;fillColor=none;" vertex="1" parent="1">
          <mxGeometry x="1250" y="230" width="40" height="30" as="geometry" />
        </mxCell>
      </root>
    </mxGraphModel>
  </diagram>
</mxfile>
